<mxfile host="Electron" modified="2023-12-24T22:21:37.326Z" agent="Mozilla/5.0 (X11; Linux x86_64) AppleWebKit/537.36 (KHTML, like Gecko) draw.io/22.1.11 Chrome/114.0.5735.289 Electron/25.9.8 Safari/537.36" etag="jDtOTWNagy-fSGP7epFo" version="22.1.11" type="device" pages="4">
  <diagram id="skpnfAq21YsmbowS5wPJ" name="lps">
    <mxGraphModel dx="982" dy="839" grid="1" gridSize="10" guides="1" tooltips="1" connect="1" arrows="1" fold="1" page="1" pageScale="1" pageWidth="1169" pageHeight="827" math="0" shadow="0">
      <root>
        <mxCell id="l60IrE2TjQOW7Mh9ruJJ-0" />
        <mxCell id="l60IrE2TjQOW7Mh9ruJJ-1" parent="l60IrE2TjQOW7Mh9ruJJ-0" />
        <mxCell id="1HcoE0sBDj3kYF0vjCB9-7" style="edgeStyle=orthogonalEdgeStyle;rounded=0;orthogonalLoop=1;jettySize=auto;html=1;exitX=0.5;exitY=1;exitDx=0;exitDy=0;exitPerimeter=0;entryX=0.5;entryY=0;entryDx=0;entryDy=0;endArrow=none;endFill=0;" parent="l60IrE2TjQOW7Mh9ruJJ-1" source="1HcoE0sBDj3kYF0vjCB9-8" target="1HcoE0sBDj3kYF0vjCB9-13" edge="1">
          <mxGeometry relative="1" as="geometry" />
        </mxCell>
        <mxCell id="1HcoE0sBDj3kYF0vjCB9-8" value="Начало" style="strokeWidth=1;html=1;shape=mxgraph.flowchart.terminator;whiteSpace=wrap;" parent="l60IrE2TjQOW7Mh9ruJJ-1" vertex="1">
          <mxGeometry x="660" y="140" width="120" height="60" as="geometry" />
        </mxCell>
        <mxCell id="1HcoE0sBDj3kYF0vjCB9-9" value="Конец" style="strokeWidth=1;html=1;shape=mxgraph.flowchart.terminator;whiteSpace=wrap;" parent="l60IrE2TjQOW7Mh9ruJJ-1" vertex="1">
          <mxGeometry x="660" y="890" width="120" height="60" as="geometry" />
        </mxCell>
        <mxCell id="1HcoE0sBDj3kYF0vjCB9-10" style="edgeStyle=orthogonalEdgeStyle;rounded=0;orthogonalLoop=1;jettySize=auto;html=1;exitX=0;exitY=0.5;exitDx=0;exitDy=0;exitPerimeter=0;entryX=1;entryY=0.5;entryDx=0;entryDy=0;entryPerimeter=0;endArrow=none;endFill=0;dashed=1;" parent="l60IrE2TjQOW7Mh9ruJJ-1" source="1HcoE0sBDj3kYF0vjCB9-11" target="1HcoE0sBDj3kYF0vjCB9-8" edge="1">
          <mxGeometry relative="1" as="geometry" />
        </mxCell>
        <mxCell id="1HcoE0sBDj3kYF0vjCB9-11" value="create_lps&lt;br&gt;Вход: подстрока pattern&lt;br&gt;Выход:массив с наибольшей длиной&amp;nbsp;&lt;br&gt;суффикса, который является и префиксом (lps)" style="strokeWidth=1;html=1;shape=mxgraph.flowchart.annotation_2;align=left;labelPosition=right;pointerEvents=1;rounded=0;" parent="l60IrE2TjQOW7Mh9ruJJ-1" vertex="1">
          <mxGeometry x="805" y="140" width="45" height="60" as="geometry" />
        </mxCell>
        <mxCell id="1HcoE0sBDj3kYF0vjCB9-12" style="edgeStyle=orthogonalEdgeStyle;rounded=0;orthogonalLoop=1;jettySize=auto;html=1;exitX=0.5;exitY=1;exitDx=0;exitDy=0;entryX=0.5;entryY=0;entryDx=0;entryDy=0;entryPerimeter=0;endArrow=none;endFill=0;" parent="l60IrE2TjQOW7Mh9ruJJ-1" source="1HcoE0sBDj3kYF0vjCB9-13" edge="1">
          <mxGeometry relative="1" as="geometry">
            <mxPoint x="720" y="300" as="targetPoint" />
          </mxGeometry>
        </mxCell>
        <mxCell id="1HcoE0sBDj3kYF0vjCB9-13" value="m = длина подстроки" style="rounded=0;whiteSpace=wrap;html=1;absoluteArcSize=1;arcSize=14;strokeWidth=1;" parent="l60IrE2TjQOW7Mh9ruJJ-1" vertex="1">
          <mxGeometry x="660" y="220" width="120" height="60" as="geometry" />
        </mxCell>
        <mxCell id="1HcoE0sBDj3kYF0vjCB9-25" style="edgeStyle=orthogonalEdgeStyle;rounded=0;orthogonalLoop=1;jettySize=auto;html=1;exitX=0.5;exitY=1;exitDx=0;exitDy=0;exitPerimeter=0;entryX=0.5;entryY=0;entryDx=0;entryDy=0;endArrow=none;endFill=0;" parent="l60IrE2TjQOW7Mh9ruJJ-1" target="1HcoE0sBDj3kYF0vjCB9-27" edge="1">
          <mxGeometry relative="1" as="geometry">
            <mxPoint x="720" y="280" as="sourcePoint" />
          </mxGeometry>
        </mxCell>
        <mxCell id="1HcoE0sBDj3kYF0vjCB9-26" style="edgeStyle=orthogonalEdgeStyle;rounded=0;orthogonalLoop=1;jettySize=auto;html=1;exitX=0.5;exitY=1;exitDx=0;exitDy=0;entryX=0.5;entryY=0;entryDx=0;entryDy=0;entryPerimeter=0;endArrow=none;endFill=0;" parent="l60IrE2TjQOW7Mh9ruJJ-1" source="1HcoE0sBDj3kYF0vjCB9-27" edge="1">
          <mxGeometry relative="1" as="geometry">
            <mxPoint x="720" y="380" as="targetPoint" />
          </mxGeometry>
        </mxCell>
        <mxCell id="1HcoE0sBDj3kYF0vjCB9-27" value="length = 0" style="rounded=0;whiteSpace=wrap;html=1;absoluteArcSize=1;arcSize=14;strokeWidth=1;" parent="l60IrE2TjQOW7Mh9ruJJ-1" vertex="1">
          <mxGeometry x="660" y="300" width="120" height="60" as="geometry" />
        </mxCell>
        <mxCell id="XFiVEm30BlrhabqpOmim-0" style="edgeStyle=orthogonalEdgeStyle;rounded=0;orthogonalLoop=1;jettySize=auto;html=1;exitX=0.5;exitY=1;exitDx=0;exitDy=0;entryX=0.5;entryY=0;entryDx=0;entryDy=0;entryPerimeter=0;endArrow=none;endFill=0;" parent="l60IrE2TjQOW7Mh9ruJJ-1" edge="1">
          <mxGeometry relative="1" as="geometry">
            <mxPoint x="719.67" y="460" as="targetPoint" />
            <mxPoint x="719.67" y="440" as="sourcePoint" />
          </mxGeometry>
        </mxCell>
        <mxCell id="XFiVEm30BlrhabqpOmim-8" value="&lt;span&gt;Цикл по i от 0 до m&lt;br&gt;с шагом 1&lt;br&gt;&lt;/span&gt;" style="shape=loopLimit;whiteSpace=wrap;html=1;strokeWidth=1;" parent="l60IrE2TjQOW7Mh9ruJJ-1" vertex="1">
          <mxGeometry x="660" y="378.5" width="120" height="61.5" as="geometry" />
        </mxCell>
        <mxCell id="XFiVEm30BlrhabqpOmim-9" value="Цикл по i от 0 до m" style="shape=loopLimit;whiteSpace=wrap;html=1;strokeWidth=1;flipV=1;" parent="l60IrE2TjQOW7Mh9ruJJ-1" vertex="1">
          <mxGeometry x="660" y="810" width="120" height="60" as="geometry" />
        </mxCell>
        <mxCell id="XFiVEm30BlrhabqpOmim-16" style="edgeStyle=orthogonalEdgeStyle;rounded=0;orthogonalLoop=1;jettySize=auto;html=1;exitX=0.5;exitY=1;exitDx=0;exitDy=0;entryX=0.5;entryY=1;entryDx=0;entryDy=0;entryPerimeter=0;endArrow=none;endFill=0;" parent="l60IrE2TjQOW7Mh9ruJJ-1" edge="1">
          <mxGeometry relative="1" as="geometry">
            <mxPoint x="719.6700000000001" y="890" as="targetPoint" />
            <mxPoint x="719.6700000000001" y="870" as="sourcePoint" />
          </mxGeometry>
        </mxCell>
        <mxCell id="Ao8KsQ77CtE7sMP4NLdK-5" style="edgeStyle=orthogonalEdgeStyle;rounded=0;orthogonalLoop=1;jettySize=auto;html=1;exitX=1;exitY=0.5;exitDx=0;exitDy=0;" edge="1" parent="l60IrE2TjQOW7Mh9ruJJ-1" source="Ao8KsQ77CtE7sMP4NLdK-0" target="Ao8KsQ77CtE7sMP4NLdK-2">
          <mxGeometry relative="1" as="geometry" />
        </mxCell>
        <mxCell id="Ao8KsQ77CtE7sMP4NLdK-0" value="pattern[i] = &lt;br&gt;pattern[length] ?" style="rhombus;whiteSpace=wrap;html=1;" vertex="1" parent="l60IrE2TjQOW7Mh9ruJJ-1">
          <mxGeometry x="647.5" y="460" width="145" height="80" as="geometry" />
        </mxCell>
        <mxCell id="Ao8KsQ77CtE7sMP4NLdK-2" value="length = length + 1" style="rounded=0;whiteSpace=wrap;html=1;absoluteArcSize=1;arcSize=14;strokeWidth=1;" vertex="1" parent="l60IrE2TjQOW7Mh9ruJJ-1">
          <mxGeometry x="770" y="540" width="120" height="60" as="geometry" />
        </mxCell>
        <mxCell id="Ao8KsQ77CtE7sMP4NLdK-3" value="i = i - 1" style="rounded=0;whiteSpace=wrap;html=1;absoluteArcSize=1;arcSize=14;strokeWidth=1;" vertex="1" parent="l60IrE2TjQOW7Mh9ruJJ-1">
          <mxGeometry x="620" y="690" width="120" height="60" as="geometry" />
        </mxCell>
        <mxCell id="Ao8KsQ77CtE7sMP4NLdK-15" style="edgeStyle=orthogonalEdgeStyle;rounded=0;orthogonalLoop=1;jettySize=auto;html=1;exitX=1;exitY=0.5;exitDx=0;exitDy=0;entryX=0.5;entryY=0;entryDx=0;entryDy=0;" edge="1" parent="l60IrE2TjQOW7Mh9ruJJ-1" source="Ao8KsQ77CtE7sMP4NLdK-4" target="Ao8KsQ77CtE7sMP4NLdK-14">
          <mxGeometry relative="1" as="geometry" />
        </mxCell>
        <mxCell id="Ao8KsQ77CtE7sMP4NLdK-4" value="length != 0 ?" style="rhombus;whiteSpace=wrap;html=1;" vertex="1" parent="l60IrE2TjQOW7Mh9ruJJ-1">
          <mxGeometry x="502.5" y="530" width="145" height="80" as="geometry" />
        </mxCell>
        <mxCell id="Ao8KsQ77CtE7sMP4NLdK-6" value="Да" style="text;html=1;strokeColor=none;fillColor=none;align=center;verticalAlign=middle;whiteSpace=wrap;rounded=0;" vertex="1" parent="l60IrE2TjQOW7Mh9ruJJ-1">
          <mxGeometry x="790" y="480" width="60" height="30" as="geometry" />
        </mxCell>
        <mxCell id="Ao8KsQ77CtE7sMP4NLdK-7" value="" style="endArrow=none;html=1;rounded=0;entryX=0;entryY=0.5;entryDx=0;entryDy=0;exitX=0.5;exitY=0;exitDx=0;exitDy=0;" edge="1" parent="l60IrE2TjQOW7Mh9ruJJ-1" source="Ao8KsQ77CtE7sMP4NLdK-4" target="Ao8KsQ77CtE7sMP4NLdK-0">
          <mxGeometry width="50" height="50" relative="1" as="geometry">
            <mxPoint x="950" y="620" as="sourcePoint" />
            <mxPoint x="1000" y="570" as="targetPoint" />
            <Array as="points">
              <mxPoint x="575" y="500" />
            </Array>
          </mxGeometry>
        </mxCell>
        <mxCell id="Ao8KsQ77CtE7sMP4NLdK-8" style="edgeStyle=orthogonalEdgeStyle;rounded=0;orthogonalLoop=1;jettySize=auto;html=1;exitX=0.5;exitY=1;exitDx=0;exitDy=0;exitPerimeter=0;entryX=0.5;entryY=0;entryDx=0;entryDy=0;endArrow=none;endFill=0;" edge="1" parent="l60IrE2TjQOW7Mh9ruJJ-1" target="Ao8KsQ77CtE7sMP4NLdK-10">
          <mxGeometry relative="1" as="geometry">
            <mxPoint x="827.5" y="600" as="sourcePoint" />
          </mxGeometry>
        </mxCell>
        <mxCell id="Ao8KsQ77CtE7sMP4NLdK-9" style="edgeStyle=orthogonalEdgeStyle;rounded=0;orthogonalLoop=1;jettySize=auto;html=1;exitX=0.5;exitY=1;exitDx=0;exitDy=0;entryX=0.5;entryY=0;entryDx=0;entryDy=0;entryPerimeter=0;endArrow=none;endFill=0;" edge="1" parent="l60IrE2TjQOW7Mh9ruJJ-1" source="Ao8KsQ77CtE7sMP4NLdK-10">
          <mxGeometry relative="1" as="geometry">
            <mxPoint x="827.5" y="700" as="targetPoint" />
          </mxGeometry>
        </mxCell>
        <mxCell id="Ao8KsQ77CtE7sMP4NLdK-10" value="lps[i] = length" style="rounded=0;whiteSpace=wrap;html=1;absoluteArcSize=1;arcSize=14;strokeWidth=1;" vertex="1" parent="l60IrE2TjQOW7Mh9ruJJ-1">
          <mxGeometry x="767.5" y="620" width="120" height="60" as="geometry" />
        </mxCell>
        <mxCell id="Ao8KsQ77CtE7sMP4NLdK-11" style="edgeStyle=orthogonalEdgeStyle;rounded=0;orthogonalLoop=1;jettySize=auto;html=1;exitX=0.5;exitY=1;exitDx=0;exitDy=0;exitPerimeter=0;endArrow=none;endFill=0;" edge="1" parent="l60IrE2TjQOW7Mh9ruJJ-1">
          <mxGeometry relative="1" as="geometry">
            <mxPoint x="827.5" y="680" as="sourcePoint" />
            <mxPoint x="580" y="770" as="targetPoint" />
            <Array as="points">
              <mxPoint x="828" y="790" />
              <mxPoint x="581" y="790" />
            </Array>
          </mxGeometry>
        </mxCell>
        <mxCell id="Ao8KsQ77CtE7sMP4NLdK-12" style="edgeStyle=orthogonalEdgeStyle;rounded=0;orthogonalLoop=1;jettySize=auto;html=1;exitX=0.5;exitY=1;exitDx=0;exitDy=0;entryX=0.5;entryY=0;entryDx=0;entryDy=0;entryPerimeter=0;endArrow=none;endFill=0;" edge="1" parent="l60IrE2TjQOW7Mh9ruJJ-1">
          <mxGeometry relative="1" as="geometry">
            <mxPoint x="679.5" y="690" as="targetPoint" />
            <mxPoint x="679.5" y="670" as="sourcePoint" />
          </mxGeometry>
        </mxCell>
        <mxCell id="Ao8KsQ77CtE7sMP4NLdK-14" value="length = lps[length-1]" style="rounded=0;whiteSpace=wrap;html=1;absoluteArcSize=1;arcSize=14;strokeWidth=1;" vertex="1" parent="l60IrE2TjQOW7Mh9ruJJ-1">
          <mxGeometry x="620" y="610" width="120" height="60" as="geometry" />
        </mxCell>
        <mxCell id="Ao8KsQ77CtE7sMP4NLdK-16" value="Да" style="text;html=1;strokeColor=none;fillColor=none;align=center;verticalAlign=middle;whiteSpace=wrap;rounded=0;" vertex="1" parent="l60IrE2TjQOW7Mh9ruJJ-1">
          <mxGeometry x="630" y="550" width="60" height="30" as="geometry" />
        </mxCell>
        <mxCell id="Ao8KsQ77CtE7sMP4NLdK-17" value="lps[i] = 0" style="rounded=0;whiteSpace=wrap;html=1;absoluteArcSize=1;arcSize=14;strokeWidth=1;" vertex="1" parent="l60IrE2TjQOW7Mh9ruJJ-1">
          <mxGeometry x="410" y="610" width="120" height="60" as="geometry" />
        </mxCell>
        <mxCell id="Ao8KsQ77CtE7sMP4NLdK-18" value="" style="endArrow=none;html=1;rounded=0;entryX=0;entryY=0.5;entryDx=0;entryDy=0;exitX=0.5;exitY=0;exitDx=0;exitDy=0;" edge="1" parent="l60IrE2TjQOW7Mh9ruJJ-1" source="Ao8KsQ77CtE7sMP4NLdK-17" target="Ao8KsQ77CtE7sMP4NLdK-4">
          <mxGeometry width="50" height="50" relative="1" as="geometry">
            <mxPoint x="740" y="700" as="sourcePoint" />
            <mxPoint x="790" y="650" as="targetPoint" />
            <Array as="points">
              <mxPoint x="470" y="570" />
            </Array>
          </mxGeometry>
        </mxCell>
        <mxCell id="Ao8KsQ77CtE7sMP4NLdK-19" value="" style="endArrow=none;html=1;rounded=0;entryX=0.5;entryY=1;entryDx=0;entryDy=0;exitX=0.5;exitY=1;exitDx=0;exitDy=0;" edge="1" parent="l60IrE2TjQOW7Mh9ruJJ-1" source="Ao8KsQ77CtE7sMP4NLdK-17" target="Ao8KsQ77CtE7sMP4NLdK-3">
          <mxGeometry width="50" height="50" relative="1" as="geometry">
            <mxPoint x="580" y="770" as="sourcePoint" />
            <mxPoint x="790" y="650" as="targetPoint" />
            <Array as="points">
              <mxPoint x="470" y="770" />
              <mxPoint x="680" y="770" />
            </Array>
          </mxGeometry>
        </mxCell>
        <mxCell id="Ao8KsQ77CtE7sMP4NLdK-20" style="edgeStyle=orthogonalEdgeStyle;rounded=0;orthogonalLoop=1;jettySize=auto;html=1;exitX=0.5;exitY=1;exitDx=0;exitDy=0;entryX=0.5;entryY=0;entryDx=0;entryDy=0;entryPerimeter=0;endArrow=none;endFill=0;" edge="1" parent="l60IrE2TjQOW7Mh9ruJJ-1">
          <mxGeometry relative="1" as="geometry">
            <mxPoint x="719.5" y="810" as="targetPoint" />
            <mxPoint x="719.5" y="790" as="sourcePoint" />
          </mxGeometry>
        </mxCell>
        <mxCell id="Ao8KsQ77CtE7sMP4NLdK-21" style="edgeStyle=orthogonalEdgeStyle;rounded=0;orthogonalLoop=1;jettySize=auto;html=1;exitX=0;exitY=0.5;exitDx=0;exitDy=0;exitPerimeter=0;entryX=1;entryY=0.5;entryDx=0;entryDy=0;entryPerimeter=0;endArrow=none;endFill=0;dashed=1;" edge="1" parent="l60IrE2TjQOW7Mh9ruJJ-1" source="Ao8KsQ77CtE7sMP4NLdK-22">
          <mxGeometry relative="1" as="geometry">
            <mxPoint x="780" y="920" as="targetPoint" />
          </mxGeometry>
        </mxCell>
        <mxCell id="Ao8KsQ77CtE7sMP4NLdK-22" value="Возврат lps" style="strokeWidth=1;html=1;shape=mxgraph.flowchart.annotation_2;align=left;labelPosition=right;pointerEvents=1;rounded=0;" vertex="1" parent="l60IrE2TjQOW7Mh9ruJJ-1">
          <mxGeometry x="805" y="900" width="45" height="40" as="geometry" />
        </mxCell>
      </root>
    </mxGraphModel>
  </diagram>
  <diagram id="Rl0RNSKPya53WOGFxEmt" name="bm2">
    <mxGraphModel dx="982" dy="839" grid="1" gridSize="10" guides="1" tooltips="1" connect="1" arrows="1" fold="1" page="1" pageScale="1" pageWidth="1169" pageHeight="827" math="0" shadow="0">
      <root>
        <mxCell id="0fX3c-QUaj0qbUp6gQ7F-0" />
        <mxCell id="0fX3c-QUaj0qbUp6gQ7F-1" parent="0fX3c-QUaj0qbUp6gQ7F-0" />
        <mxCell id="0Pcys9SpyM2NjpfwfjbF-2" value="Конец" style="strokeWidth=1;html=1;shape=mxgraph.flowchart.terminator;whiteSpace=wrap;" vertex="1" parent="0fX3c-QUaj0qbUp6gQ7F-1">
          <mxGeometry x="762.5" y="1139" width="120" height="60" as="geometry" />
        </mxCell>
        <mxCell id="0Pcys9SpyM2NjpfwfjbF-10" style="edgeStyle=orthogonalEdgeStyle;rounded=0;orthogonalLoop=1;jettySize=auto;html=1;exitX=0.5;exitY=1;exitDx=0;exitDy=0;entryX=0.5;entryY=0;entryDx=0;entryDy=0;entryPerimeter=0;endArrow=none;endFill=0;" edge="1" parent="0fX3c-QUaj0qbUp6gQ7F-1">
          <mxGeometry relative="1" as="geometry">
            <mxPoint x="822.17" y="801.5" as="targetPoint" />
            <mxPoint x="822.17" y="781.5" as="sourcePoint" />
          </mxGeometry>
        </mxCell>
        <mxCell id="0Pcys9SpyM2NjpfwfjbF-11" value="&lt;span&gt;Цикл пока ind = -1 &lt;br&gt;и i &amp;lt;= n - m&lt;br&gt;&lt;/span&gt;" style="shape=loopLimit;whiteSpace=wrap;html=1;strokeWidth=1;" vertex="1" parent="0fX3c-QUaj0qbUp6gQ7F-1">
          <mxGeometry x="762.5" y="400" width="120" height="61.5" as="geometry" />
        </mxCell>
        <mxCell id="0Pcys9SpyM2NjpfwfjbF-12" value="Цикл пока ind = -1&lt;br style=&quot;border-color: var(--border-color);&quot;&gt;и i &amp;lt;= n - m" style="shape=loopLimit;whiteSpace=wrap;html=1;strokeWidth=1;flipV=1;" vertex="1" parent="0fX3c-QUaj0qbUp6gQ7F-1">
          <mxGeometry x="762.5" y="1060" width="120" height="60" as="geometry" />
        </mxCell>
        <mxCell id="0Pcys9SpyM2NjpfwfjbF-13" style="edgeStyle=orthogonalEdgeStyle;rounded=0;orthogonalLoop=1;jettySize=auto;html=1;exitX=0.5;exitY=1;exitDx=0;exitDy=0;entryX=0.5;entryY=1;entryDx=0;entryDy=0;entryPerimeter=0;endArrow=none;endFill=0;" edge="1" parent="0fX3c-QUaj0qbUp6gQ7F-1">
          <mxGeometry relative="1" as="geometry">
            <mxPoint x="822.1700000000001" y="1140" as="targetPoint" />
            <mxPoint x="822.1700000000001" y="1120" as="sourcePoint" />
          </mxGeometry>
        </mxCell>
        <mxCell id="0Pcys9SpyM2NjpfwfjbF-14" style="edgeStyle=orthogonalEdgeStyle;rounded=0;orthogonalLoop=1;jettySize=auto;html=1;exitX=1;exitY=0.5;exitDx=0;exitDy=0;" edge="1" parent="0fX3c-QUaj0qbUp6gQ7F-1" source="0Pcys9SpyM2NjpfwfjbF-15" target="0Pcys9SpyM2NjpfwfjbF-16">
          <mxGeometry relative="1" as="geometry" />
        </mxCell>
        <mxCell id="0Pcys9SpyM2NjpfwfjbF-15" value="j &amp;lt; 0?" style="rhombus;whiteSpace=wrap;html=1;" vertex="1" parent="0fX3c-QUaj0qbUp6gQ7F-1">
          <mxGeometry x="750" y="801.5" width="145" height="80" as="geometry" />
        </mxCell>
        <mxCell id="0Pcys9SpyM2NjpfwfjbF-16" value="ind = i" style="rounded=0;whiteSpace=wrap;html=1;absoluteArcSize=1;arcSize=14;strokeWidth=1;" vertex="1" parent="0fX3c-QUaj0qbUp6gQ7F-1">
          <mxGeometry x="872.5" y="881.5" width="120" height="60" as="geometry" />
        </mxCell>
        <mxCell id="0Pcys9SpyM2NjpfwfjbF-18" style="edgeStyle=orthogonalEdgeStyle;rounded=0;orthogonalLoop=1;jettySize=auto;html=1;exitX=1;exitY=0.5;exitDx=0;exitDy=0;entryX=0.5;entryY=0;entryDx=0;entryDy=0;" edge="1" parent="0fX3c-QUaj0qbUp6gQ7F-1" source="0Pcys9SpyM2NjpfwfjbF-19" target="0Pcys9SpyM2NjpfwfjbF-27">
          <mxGeometry relative="1" as="geometry" />
        </mxCell>
        <mxCell id="0Pcys9SpyM2NjpfwfjbF-19" value="text[i+j] есть в&amp;nbsp;&lt;br&gt;bad_char?" style="rhombus;whiteSpace=wrap;html=1;" vertex="1" parent="0fX3c-QUaj0qbUp6gQ7F-1">
          <mxGeometry x="612.5" y="860" width="145" height="80" as="geometry" />
        </mxCell>
        <mxCell id="0Pcys9SpyM2NjpfwfjbF-20" value="Да" style="text;html=1;strokeColor=none;fillColor=none;align=center;verticalAlign=middle;whiteSpace=wrap;rounded=0;" vertex="1" parent="0fX3c-QUaj0qbUp6gQ7F-1">
          <mxGeometry x="892.5" y="820" width="60" height="30" as="geometry" />
        </mxCell>
        <mxCell id="0Pcys9SpyM2NjpfwfjbF-21" value="" style="endArrow=none;html=1;rounded=0;entryX=0;entryY=0.5;entryDx=0;entryDy=0;exitX=0.5;exitY=0;exitDx=0;exitDy=0;" edge="1" parent="0fX3c-QUaj0qbUp6gQ7F-1" source="0Pcys9SpyM2NjpfwfjbF-19" target="0Pcys9SpyM2NjpfwfjbF-15">
          <mxGeometry width="50" height="50" relative="1" as="geometry">
            <mxPoint x="1050" y="881.5" as="sourcePoint" />
            <mxPoint x="1100" y="831.5" as="targetPoint" />
            <Array as="points">
              <mxPoint x="685" y="842" />
            </Array>
          </mxGeometry>
        </mxCell>
        <mxCell id="0Pcys9SpyM2NjpfwfjbF-26" style="edgeStyle=orthogonalEdgeStyle;rounded=0;orthogonalLoop=1;jettySize=auto;html=1;exitX=0.5;exitY=1;exitDx=0;exitDy=0;entryX=0.5;entryY=1;entryDx=0;entryDy=0;endArrow=none;endFill=0;" edge="1" parent="0fX3c-QUaj0qbUp6gQ7F-1" target="0Pcys9SpyM2NjpfwfjbF-29">
          <mxGeometry relative="1" as="geometry">
            <mxPoint x="789.5" y="1020" as="targetPoint" />
            <mxPoint x="789.5" y="1000" as="sourcePoint" />
            <Array as="points">
              <mxPoint x="790" y="1020" />
              <mxPoint x="580" y="1020" />
            </Array>
          </mxGeometry>
        </mxCell>
        <mxCell id="0Pcys9SpyM2NjpfwfjbF-27" value="i = i + max(1,&amp;nbsp;&lt;br&gt;j - bad_char[text[i+j]])" style="rounded=0;whiteSpace=wrap;html=1;absoluteArcSize=1;arcSize=14;strokeWidth=1;" vertex="1" parent="0fX3c-QUaj0qbUp6gQ7F-1">
          <mxGeometry x="730" y="940" width="120" height="60" as="geometry" />
        </mxCell>
        <mxCell id="0Pcys9SpyM2NjpfwfjbF-28" value="Да" style="text;html=1;strokeColor=none;fillColor=none;align=center;verticalAlign=middle;whiteSpace=wrap;rounded=0;" vertex="1" parent="0fX3c-QUaj0qbUp6gQ7F-1">
          <mxGeometry x="740" y="880" width="60" height="30" as="geometry" />
        </mxCell>
        <mxCell id="0Pcys9SpyM2NjpfwfjbF-29" value="i = i + max(1, j)" style="rounded=0;whiteSpace=wrap;html=1;absoluteArcSize=1;arcSize=14;strokeWidth=1;" vertex="1" parent="0fX3c-QUaj0qbUp6gQ7F-1">
          <mxGeometry x="520" y="940" width="120" height="60" as="geometry" />
        </mxCell>
        <mxCell id="0Pcys9SpyM2NjpfwfjbF-30" value="" style="endArrow=none;html=1;rounded=0;entryX=0;entryY=0.5;entryDx=0;entryDy=0;exitX=0.5;exitY=0;exitDx=0;exitDy=0;" edge="1" parent="0fX3c-QUaj0qbUp6gQ7F-1" source="0Pcys9SpyM2NjpfwfjbF-29" target="0Pcys9SpyM2NjpfwfjbF-19">
          <mxGeometry width="50" height="50" relative="1" as="geometry">
            <mxPoint x="850" y="1030" as="sourcePoint" />
            <mxPoint x="900" y="980" as="targetPoint" />
            <Array as="points">
              <mxPoint x="580" y="900" />
            </Array>
          </mxGeometry>
        </mxCell>
        <mxCell id="0Pcys9SpyM2NjpfwfjbF-32" style="edgeStyle=orthogonalEdgeStyle;rounded=0;orthogonalLoop=1;jettySize=auto;html=1;exitX=0.5;exitY=1;exitDx=0;exitDy=0;entryX=0.5;entryY=0;entryDx=0;entryDy=0;entryPerimeter=0;endArrow=none;endFill=0;" edge="1" parent="0fX3c-QUaj0qbUp6gQ7F-1">
          <mxGeometry relative="1" as="geometry">
            <mxPoint x="822" y="1060" as="targetPoint" />
            <mxPoint x="822" y="1040" as="sourcePoint" />
          </mxGeometry>
        </mxCell>
        <mxCell id="YAqKq4o1g_gu_lf_7tq1-5" style="edgeStyle=orthogonalEdgeStyle;rounded=0;orthogonalLoop=1;jettySize=auto;html=1;exitX=0.5;exitY=1;exitDx=0;exitDy=0;entryX=0.5;entryY=0;entryDx=0;entryDy=0;entryPerimeter=0;endArrow=none;endFill=0;" edge="1" parent="0fX3c-QUaj0qbUp6gQ7F-1">
          <mxGeometry relative="1" as="geometry">
            <mxPoint x="822" y="400" as="targetPoint" />
            <mxPoint x="822" y="380" as="sourcePoint" />
          </mxGeometry>
        </mxCell>
        <mxCell id="YAqKq4o1g_gu_lf_7tq1-14" value="" style="endArrow=none;html=1;rounded=0;" edge="1" parent="0fX3c-QUaj0qbUp6gQ7F-1">
          <mxGeometry width="50" height="50" relative="1" as="geometry">
            <mxPoint x="680" y="1020" as="sourcePoint" />
            <mxPoint x="930" y="940" as="targetPoint" />
            <Array as="points">
              <mxPoint x="680" y="1040" />
              <mxPoint x="930" y="1040" />
            </Array>
          </mxGeometry>
        </mxCell>
        <mxCell id="YAqKq4o1g_gu_lf_7tq1-15" style="edgeStyle=orthogonalEdgeStyle;rounded=0;orthogonalLoop=1;jettySize=auto;html=1;exitX=0;exitY=0.5;exitDx=0;exitDy=0;exitPerimeter=0;entryX=1;entryY=0.5;entryDx=0;entryDy=0;entryPerimeter=0;endArrow=none;endFill=0;dashed=1;" edge="1" parent="0fX3c-QUaj0qbUp6gQ7F-1" source="YAqKq4o1g_gu_lf_7tq1-16">
          <mxGeometry relative="1" as="geometry">
            <mxPoint x="882.5" y="1169" as="targetPoint" />
          </mxGeometry>
        </mxCell>
        <mxCell id="YAqKq4o1g_gu_lf_7tq1-16" value="Возврат ind" style="strokeWidth=1;html=1;shape=mxgraph.flowchart.annotation_2;align=left;labelPosition=right;pointerEvents=1;rounded=0;" vertex="1" parent="0fX3c-QUaj0qbUp6gQ7F-1">
          <mxGeometry x="907.5" y="1139" width="45" height="60" as="geometry" />
        </mxCell>
        <mxCell id="D2mnQkVuW8t-ugkZxbgK-58" value="A" style="ellipse;whiteSpace=wrap;html=1;aspect=fixed;" vertex="1" parent="0fX3c-QUaj0qbUp6gQ7F-1">
          <mxGeometry x="792.5" y="320" width="60" height="60" as="geometry" />
        </mxCell>
        <mxCell id="ArSl1CyP6AoOm3L-2-Gi-0" value="j = m - 1" style="rounded=0;whiteSpace=wrap;html=1;absoluteArcSize=1;arcSize=14;strokeWidth=1;" vertex="1" parent="0fX3c-QUaj0qbUp6gQ7F-1">
          <mxGeometry x="762.5" y="480" width="120" height="60" as="geometry" />
        </mxCell>
        <mxCell id="ArSl1CyP6AoOm3L-2-Gi-1" style="edgeStyle=orthogonalEdgeStyle;rounded=0;orthogonalLoop=1;jettySize=auto;html=1;exitX=0.5;exitY=1;exitDx=0;exitDy=0;entryX=0.5;entryY=0;entryDx=0;entryDy=0;entryPerimeter=0;endArrow=none;endFill=0;" edge="1" parent="0fX3c-QUaj0qbUp6gQ7F-1">
          <mxGeometry relative="1" as="geometry">
            <mxPoint x="819.5" y="480" as="targetPoint" />
            <mxPoint x="819.5" y="460" as="sourcePoint" />
          </mxGeometry>
        </mxCell>
        <mxCell id="ArSl1CyP6AoOm3L-2-Gi-2" value="&lt;span&gt;Цикл пока j &amp;gt;= 0&lt;br&gt;и pattern[j] = text[i+j]&lt;br&gt;&lt;/span&gt;" style="shape=loopLimit;whiteSpace=wrap;html=1;strokeWidth=1;" vertex="1" parent="0fX3c-QUaj0qbUp6gQ7F-1">
          <mxGeometry x="762.5" y="560" width="120" height="61.5" as="geometry" />
        </mxCell>
        <mxCell id="ArSl1CyP6AoOm3L-2-Gi-3" style="edgeStyle=orthogonalEdgeStyle;rounded=0;orthogonalLoop=1;jettySize=auto;html=1;exitX=0.5;exitY=1;exitDx=0;exitDy=0;entryX=0.5;entryY=0;entryDx=0;entryDy=0;entryPerimeter=0;endArrow=none;endFill=0;" edge="1" parent="0fX3c-QUaj0qbUp6gQ7F-1">
          <mxGeometry relative="1" as="geometry">
            <mxPoint x="822" y="560" as="targetPoint" />
            <mxPoint x="822" y="540" as="sourcePoint" />
          </mxGeometry>
        </mxCell>
        <mxCell id="ArSl1CyP6AoOm3L-2-Gi-4" value="j = m - 1" style="rounded=0;whiteSpace=wrap;html=1;absoluteArcSize=1;arcSize=14;strokeWidth=1;" vertex="1" parent="0fX3c-QUaj0qbUp6gQ7F-1">
          <mxGeometry x="762.5" y="640" width="120" height="60" as="geometry" />
        </mxCell>
        <mxCell id="ArSl1CyP6AoOm3L-2-Gi-5" style="edgeStyle=orthogonalEdgeStyle;rounded=0;orthogonalLoop=1;jettySize=auto;html=1;exitX=0.5;exitY=1;exitDx=0;exitDy=0;entryX=0.5;entryY=0;entryDx=0;entryDy=0;entryPerimeter=0;endArrow=none;endFill=0;" edge="1" parent="0fX3c-QUaj0qbUp6gQ7F-1">
          <mxGeometry relative="1" as="geometry">
            <mxPoint x="819.5" y="640" as="targetPoint" />
            <mxPoint x="819.5" y="620" as="sourcePoint" />
          </mxGeometry>
        </mxCell>
        <mxCell id="ArSl1CyP6AoOm3L-2-Gi-10" value="Цикл пока j &amp;gt;= 0&lt;br style=&quot;border-color: var(--border-color);&quot;&gt;и pattern[j] = text[i+j]" style="shape=loopLimit;whiteSpace=wrap;html=1;strokeWidth=1;flipV=1;" vertex="1" parent="0fX3c-QUaj0qbUp6gQ7F-1">
          <mxGeometry x="762.5" y="720" width="120" height="60" as="geometry" />
        </mxCell>
        <mxCell id="ArSl1CyP6AoOm3L-2-Gi-12" style="edgeStyle=orthogonalEdgeStyle;rounded=0;orthogonalLoop=1;jettySize=auto;html=1;exitX=0.5;exitY=1;exitDx=0;exitDy=0;entryX=0.5;entryY=0;entryDx=0;entryDy=0;entryPerimeter=0;endArrow=none;endFill=0;" edge="1" parent="0fX3c-QUaj0qbUp6gQ7F-1">
          <mxGeometry relative="1" as="geometry">
            <mxPoint x="822" y="720" as="targetPoint" />
            <mxPoint x="822" y="700" as="sourcePoint" />
          </mxGeometry>
        </mxCell>
      </root>
    </mxGraphModel>
  </diagram>
  <diagram id="CjdBjt0F0bHVFlulJIb6" name="kmp">
    <mxGraphModel dx="982" dy="839" grid="1" gridSize="10" guides="1" tooltips="1" connect="1" arrows="1" fold="1" page="1" pageScale="1" pageWidth="1100" pageHeight="850" math="0" shadow="0">
      <root>
        <mxCell id="0" />
        <mxCell id="1" parent="0" />
        <mxCell id="BhY-n9ttYg29JpvSev8K-1" value="Начало" style="strokeWidth=1;html=1;shape=mxgraph.flowchart.terminator;whiteSpace=wrap;" vertex="1" parent="1">
          <mxGeometry x="457.5" y="150" width="120" height="60" as="geometry" />
        </mxCell>
        <mxCell id="BhY-n9ttYg29JpvSev8K-2" value="Конец" style="strokeWidth=1;html=1;shape=mxgraph.flowchart.terminator;whiteSpace=wrap;" vertex="1" parent="1">
          <mxGeometry x="462.5" y="1150" width="120" height="60" as="geometry" />
        </mxCell>
        <mxCell id="BhY-n9ttYg29JpvSev8K-3" style="edgeStyle=orthogonalEdgeStyle;rounded=0;orthogonalLoop=1;jettySize=auto;html=1;exitX=0;exitY=0.5;exitDx=0;exitDy=0;exitPerimeter=0;entryX=1;entryY=0.5;entryDx=0;entryDy=0;entryPerimeter=0;endArrow=none;endFill=0;dashed=1;" edge="1" parent="1" source="BhY-n9ttYg29JpvSev8K-4" target="BhY-n9ttYg29JpvSev8K-1">
          <mxGeometry relative="1" as="geometry" />
        </mxCell>
        <mxCell id="BhY-n9ttYg29JpvSev8K-4" value="kmp_search&lt;br&gt;Вход: строка text, подстрока pattern&lt;br&gt;Выход:индекс первого символа подстроки&lt;br&gt;в строке или -1, если подстроки нет" style="strokeWidth=1;html=1;shape=mxgraph.flowchart.annotation_2;align=left;labelPosition=right;pointerEvents=1;rounded=0;" vertex="1" parent="1">
          <mxGeometry x="602.5" y="150" width="45" height="60" as="geometry" />
        </mxCell>
        <mxCell id="BhY-n9ttYg29JpvSev8K-5" style="edgeStyle=orthogonalEdgeStyle;rounded=0;orthogonalLoop=1;jettySize=auto;html=1;exitX=0.5;exitY=1;exitDx=0;exitDy=0;entryX=0.5;entryY=0;entryDx=0;entryDy=0;entryPerimeter=0;endArrow=none;endFill=0;" edge="1" parent="1">
          <mxGeometry relative="1" as="geometry">
            <mxPoint x="519.5" y="470" as="targetPoint" />
            <mxPoint x="519.5" y="450" as="sourcePoint" />
          </mxGeometry>
        </mxCell>
        <mxCell id="BhY-n9ttYg29JpvSev8K-6" style="edgeStyle=orthogonalEdgeStyle;rounded=0;orthogonalLoop=1;jettySize=auto;html=1;exitX=0.5;exitY=1;exitDx=0;exitDy=0;entryX=0.5;entryY=0;entryDx=0;entryDy=0;entryPerimeter=0;endArrow=none;endFill=0;" edge="1" parent="1">
          <mxGeometry relative="1" as="geometry">
            <mxPoint x="522.17" y="631.5" as="targetPoint" />
            <mxPoint x="522.17" y="611.5" as="sourcePoint" />
          </mxGeometry>
        </mxCell>
        <mxCell id="BhY-n9ttYg29JpvSev8K-7" value="&lt;span&gt;Цикл пока ind = -1 &lt;br&gt;и i &amp;lt; длины строки&lt;br&gt;&lt;/span&gt;" style="shape=loopLimit;whiteSpace=wrap;html=1;strokeWidth=1;" vertex="1" parent="1">
          <mxGeometry x="460" y="550" width="120" height="61.5" as="geometry" />
        </mxCell>
        <mxCell id="BhY-n9ttYg29JpvSev8K-8" value="Цикл пока ind = -1&lt;br style=&quot;border-color: var(--border-color);&quot;&gt;и i &amp;lt; длины строки" style="shape=loopLimit;whiteSpace=wrap;html=1;strokeWidth=1;flipV=1;" vertex="1" parent="1">
          <mxGeometry x="462.5" y="1071" width="120" height="60" as="geometry" />
        </mxCell>
        <mxCell id="BhY-n9ttYg29JpvSev8K-9" style="edgeStyle=orthogonalEdgeStyle;rounded=0;orthogonalLoop=1;jettySize=auto;html=1;exitX=0.5;exitY=1;exitDx=0;exitDy=0;entryX=0.5;entryY=1;entryDx=0;entryDy=0;entryPerimeter=0;endArrow=none;endFill=0;" edge="1" parent="1">
          <mxGeometry relative="1" as="geometry">
            <mxPoint x="522.1700000000001" y="1151" as="targetPoint" />
            <mxPoint x="522.1700000000001" y="1131" as="sourcePoint" />
          </mxGeometry>
        </mxCell>
        <mxCell id="BhY-n9ttYg29JpvSev8K-10" style="edgeStyle=orthogonalEdgeStyle;rounded=0;orthogonalLoop=1;jettySize=auto;html=1;exitX=1;exitY=0.5;exitDx=0;exitDy=0;" edge="1" parent="1" source="BhY-n9ttYg29JpvSev8K-11" target="BhY-n9ttYg29JpvSev8K-12">
          <mxGeometry relative="1" as="geometry" />
        </mxCell>
        <mxCell id="BhY-n9ttYg29JpvSev8K-11" value="pattern[j] = &lt;br&gt;text[i] ?" style="rhombus;whiteSpace=wrap;html=1;" vertex="1" parent="1">
          <mxGeometry x="450" y="631.5" width="145" height="80" as="geometry" />
        </mxCell>
        <mxCell id="BhY-n9ttYg29JpvSev8K-12" value="j = j + 1" style="rounded=0;whiteSpace=wrap;html=1;absoluteArcSize=1;arcSize=14;strokeWidth=1;" vertex="1" parent="1">
          <mxGeometry x="572.5" y="711.5" width="120" height="60" as="geometry" />
        </mxCell>
        <mxCell id="BhY-n9ttYg29JpvSev8K-13" style="edgeStyle=orthogonalEdgeStyle;rounded=0;orthogonalLoop=1;jettySize=auto;html=1;exitX=1;exitY=0.5;exitDx=0;exitDy=0;entryX=0.5;entryY=0;entryDx=0;entryDy=0;" edge="1" parent="1" source="BhY-n9ttYg29JpvSev8K-14" target="BhY-n9ttYg29JpvSev8K-19">
          <mxGeometry relative="1" as="geometry" />
        </mxCell>
        <mxCell id="BhY-n9ttYg29JpvSev8K-14" value="j != 0?" style="rhombus;whiteSpace=wrap;html=1;" vertex="1" parent="1">
          <mxGeometry x="312.5" y="740" width="145" height="80" as="geometry" />
        </mxCell>
        <mxCell id="BhY-n9ttYg29JpvSev8K-15" value="Да" style="text;html=1;strokeColor=none;fillColor=none;align=center;verticalAlign=middle;whiteSpace=wrap;rounded=0;" vertex="1" parent="1">
          <mxGeometry x="592.5" y="650" width="60" height="30" as="geometry" />
        </mxCell>
        <mxCell id="BhY-n9ttYg29JpvSev8K-16" value="" style="endArrow=none;html=1;rounded=0;entryX=0;entryY=0.5;entryDx=0;entryDy=0;exitX=0.5;exitY=0;exitDx=0;exitDy=0;" edge="1" parent="1" source="BhY-n9ttYg29JpvSev8K-14" target="BhY-n9ttYg29JpvSev8K-11">
          <mxGeometry width="50" height="50" relative="1" as="geometry">
            <mxPoint x="750" y="711.5" as="sourcePoint" />
            <mxPoint x="800" y="661.5" as="targetPoint" />
            <Array as="points">
              <mxPoint x="385" y="672" />
            </Array>
          </mxGeometry>
        </mxCell>
        <mxCell id="BhY-n9ttYg29JpvSev8K-17" value="ind = i - j" style="rounded=0;whiteSpace=wrap;html=1;absoluteArcSize=1;arcSize=14;strokeWidth=1;" vertex="1" parent="1">
          <mxGeometry x="680" y="948.5" width="120" height="60" as="geometry" />
        </mxCell>
        <mxCell id="BhY-n9ttYg29JpvSev8K-18" style="edgeStyle=orthogonalEdgeStyle;rounded=0;orthogonalLoop=1;jettySize=auto;html=1;exitX=0.5;exitY=1;exitDx=0;exitDy=0;entryX=0.5;entryY=1;entryDx=0;entryDy=0;endArrow=none;endFill=0;" edge="1" parent="1" target="BhY-n9ttYg29JpvSev8K-21">
          <mxGeometry relative="1" as="geometry">
            <mxPoint x="489.5" y="900" as="targetPoint" />
            <mxPoint x="489.5" y="880" as="sourcePoint" />
            <Array as="points">
              <mxPoint x="490" y="900" />
              <mxPoint x="280" y="900" />
            </Array>
          </mxGeometry>
        </mxCell>
        <mxCell id="BhY-n9ttYg29JpvSev8K-19" value="j = lps[j-1]" style="rounded=0;whiteSpace=wrap;html=1;absoluteArcSize=1;arcSize=14;strokeWidth=1;" vertex="1" parent="1">
          <mxGeometry x="430" y="820" width="120" height="60" as="geometry" />
        </mxCell>
        <mxCell id="BhY-n9ttYg29JpvSev8K-20" value="Да" style="text;html=1;strokeColor=none;fillColor=none;align=center;verticalAlign=middle;whiteSpace=wrap;rounded=0;" vertex="1" parent="1">
          <mxGeometry x="440" y="760" width="60" height="30" as="geometry" />
        </mxCell>
        <mxCell id="BhY-n9ttYg29JpvSev8K-21" value="i = i + 1" style="rounded=0;whiteSpace=wrap;html=1;absoluteArcSize=1;arcSize=14;strokeWidth=1;" vertex="1" parent="1">
          <mxGeometry x="220" y="820" width="120" height="60" as="geometry" />
        </mxCell>
        <mxCell id="BhY-n9ttYg29JpvSev8K-22" value="" style="endArrow=none;html=1;rounded=0;entryX=0;entryY=0.5;entryDx=0;entryDy=0;exitX=0.5;exitY=0;exitDx=0;exitDy=0;" edge="1" parent="1" source="BhY-n9ttYg29JpvSev8K-21" target="BhY-n9ttYg29JpvSev8K-14">
          <mxGeometry width="50" height="50" relative="1" as="geometry">
            <mxPoint x="550" y="910" as="sourcePoint" />
            <mxPoint x="600" y="860" as="targetPoint" />
            <Array as="points">
              <mxPoint x="280" y="780" />
            </Array>
          </mxGeometry>
        </mxCell>
        <mxCell id="BhY-n9ttYg29JpvSev8K-23" style="edgeStyle=orthogonalEdgeStyle;rounded=0;orthogonalLoop=1;jettySize=auto;html=1;exitX=0.5;exitY=1;exitDx=0;exitDy=0;entryX=0.5;entryY=0;entryDx=0;entryDy=0;entryPerimeter=0;endArrow=none;endFill=0;" edge="1" parent="1">
          <mxGeometry relative="1" as="geometry">
            <mxPoint x="522" y="1071" as="targetPoint" />
            <mxPoint x="522" y="1051" as="sourcePoint" />
          </mxGeometry>
        </mxCell>
        <mxCell id="BhY-n9ttYg29JpvSev8K-24" style="edgeStyle=orthogonalEdgeStyle;rounded=0;orthogonalLoop=1;jettySize=auto;html=1;exitX=0.5;exitY=1;exitDx=0;exitDy=0;entryX=0.5;entryY=0;entryDx=0;entryDy=0;entryPerimeter=0;endArrow=none;endFill=0;" edge="1" parent="1">
          <mxGeometry relative="1" as="geometry">
            <mxPoint x="520" y="230" as="targetPoint" />
            <mxPoint x="520" y="210" as="sourcePoint" />
          </mxGeometry>
        </mxCell>
        <mxCell id="BhY-n9ttYg29JpvSev8K-25" style="edgeStyle=orthogonalEdgeStyle;rounded=0;orthogonalLoop=1;jettySize=auto;html=1;exitX=0.5;exitY=1;exitDx=0;exitDy=0;exitPerimeter=0;entryX=0.5;entryY=0;entryDx=0;entryDy=0;endArrow=none;endFill=0;" edge="1" parent="1" target="BhY-n9ttYg29JpvSev8K-26">
          <mxGeometry relative="1" as="geometry">
            <mxPoint x="520" y="210" as="sourcePoint" />
          </mxGeometry>
        </mxCell>
        <mxCell id="BhY-n9ttYg29JpvSev8K-26" value="ind = -1" style="rounded=0;whiteSpace=wrap;html=1;absoluteArcSize=1;arcSize=14;strokeWidth=1;" vertex="1" parent="1">
          <mxGeometry x="460" y="230" width="120" height="60" as="geometry" />
        </mxCell>
        <mxCell id="BhY-n9ttYg29JpvSev8K-27" value="lps = create_lps&lt;br&gt;(pattern)" style="shape=process;whiteSpace=wrap;html=1;backgroundOutline=1;" vertex="1" parent="1">
          <mxGeometry x="460" y="310" width="120" height="60" as="geometry" />
        </mxCell>
        <mxCell id="BhY-n9ttYg29JpvSev8K-28" style="edgeStyle=orthogonalEdgeStyle;rounded=0;orthogonalLoop=1;jettySize=auto;html=1;exitX=0.5;exitY=1;exitDx=0;exitDy=0;exitPerimeter=0;entryX=0.5;entryY=0;entryDx=0;entryDy=0;endArrow=none;endFill=0;" edge="1" parent="1">
          <mxGeometry relative="1" as="geometry">
            <mxPoint x="519.5" y="290" as="sourcePoint" />
            <mxPoint x="519.5" y="310" as="targetPoint" />
          </mxGeometry>
        </mxCell>
        <mxCell id="BhY-n9ttYg29JpvSev8K-29" style="edgeStyle=orthogonalEdgeStyle;rounded=0;orthogonalLoop=1;jettySize=auto;html=1;exitX=0.5;exitY=1;exitDx=0;exitDy=0;entryX=0.5;entryY=0;entryDx=0;entryDy=0;entryPerimeter=0;endArrow=none;endFill=0;" edge="1" parent="1">
          <mxGeometry relative="1" as="geometry">
            <mxPoint x="520" y="390" as="targetPoint" />
            <mxPoint x="520" y="370" as="sourcePoint" />
          </mxGeometry>
        </mxCell>
        <mxCell id="BhY-n9ttYg29JpvSev8K-30" style="edgeStyle=orthogonalEdgeStyle;rounded=0;orthogonalLoop=1;jettySize=auto;html=1;exitX=0.5;exitY=1;exitDx=0;exitDy=0;exitPerimeter=0;entryX=0.5;entryY=0;entryDx=0;entryDy=0;endArrow=none;endFill=0;" edge="1" parent="1" target="BhY-n9ttYg29JpvSev8K-31">
          <mxGeometry relative="1" as="geometry">
            <mxPoint x="520" y="370" as="sourcePoint" />
          </mxGeometry>
        </mxCell>
        <mxCell id="BhY-n9ttYg29JpvSev8K-31" value="j = 0" style="rounded=0;whiteSpace=wrap;html=1;absoluteArcSize=1;arcSize=14;strokeWidth=1;" vertex="1" parent="1">
          <mxGeometry x="460" y="390" width="120" height="60" as="geometry" />
        </mxCell>
        <mxCell id="BhY-n9ttYg29JpvSev8K-32" value="j = длина подстроки?" style="rhombus;whiteSpace=wrap;html=1;" vertex="1" parent="1">
          <mxGeometry x="560" y="868.5" width="145" height="80" as="geometry" />
        </mxCell>
        <mxCell id="BhY-n9ttYg29JpvSev8K-33" style="edgeStyle=orthogonalEdgeStyle;rounded=0;orthogonalLoop=1;jettySize=auto;html=1;exitX=0.5;exitY=1;exitDx=0;exitDy=0;entryX=0.5;entryY=0;entryDx=0;entryDy=0;entryPerimeter=0;endArrow=none;endFill=0;" edge="1" parent="1">
          <mxGeometry relative="1" as="geometry">
            <mxPoint x="632" y="870" as="targetPoint" />
            <mxPoint x="632" y="850" as="sourcePoint" />
          </mxGeometry>
        </mxCell>
        <mxCell id="BhY-n9ttYg29JpvSev8K-34" style="edgeStyle=orthogonalEdgeStyle;rounded=0;orthogonalLoop=1;jettySize=auto;html=1;exitX=0.5;exitY=1;exitDx=0;exitDy=0;entryX=0.5;entryY=0;entryDx=0;entryDy=0;entryPerimeter=0;endArrow=none;endFill=0;" edge="1" parent="1">
          <mxGeometry relative="1" as="geometry">
            <mxPoint x="519.5" y="550" as="targetPoint" />
            <mxPoint x="519.5" y="530" as="sourcePoint" />
          </mxGeometry>
        </mxCell>
        <mxCell id="BhY-n9ttYg29JpvSev8K-35" style="edgeStyle=orthogonalEdgeStyle;rounded=0;orthogonalLoop=1;jettySize=auto;html=1;exitX=0.5;exitY=1;exitDx=0;exitDy=0;entryX=0.5;entryY=0;entryDx=0;entryDy=0;entryPerimeter=0;endArrow=none;endFill=0;" edge="1" parent="1">
          <mxGeometry relative="1" as="geometry">
            <mxPoint x="520" y="470" as="targetPoint" />
            <mxPoint x="520" y="450" as="sourcePoint" />
          </mxGeometry>
        </mxCell>
        <mxCell id="BhY-n9ttYg29JpvSev8K-36" style="edgeStyle=orthogonalEdgeStyle;rounded=0;orthogonalLoop=1;jettySize=auto;html=1;exitX=0.5;exitY=1;exitDx=0;exitDy=0;exitPerimeter=0;entryX=0.5;entryY=0;entryDx=0;entryDy=0;endArrow=none;endFill=0;" edge="1" parent="1" target="BhY-n9ttYg29JpvSev8K-37">
          <mxGeometry relative="1" as="geometry">
            <mxPoint x="520" y="450" as="sourcePoint" />
          </mxGeometry>
        </mxCell>
        <mxCell id="BhY-n9ttYg29JpvSev8K-37" value="i = 0" style="rounded=0;whiteSpace=wrap;html=1;absoluteArcSize=1;arcSize=14;strokeWidth=1;" vertex="1" parent="1">
          <mxGeometry x="460" y="470" width="120" height="60" as="geometry" />
        </mxCell>
        <mxCell id="BhY-n9ttYg29JpvSev8K-38" style="edgeStyle=orthogonalEdgeStyle;rounded=0;orthogonalLoop=1;jettySize=auto;html=1;exitX=1;exitY=0.5;exitDx=0;exitDy=0;" edge="1" parent="1">
          <mxGeometry relative="1" as="geometry">
            <mxPoint x="702.5" y="908.5" as="sourcePoint" />
            <mxPoint x="740.5" y="948.5" as="targetPoint" />
          </mxGeometry>
        </mxCell>
        <mxCell id="BhY-n9ttYg29JpvSev8K-39" value="Да" style="text;html=1;strokeColor=none;fillColor=none;align=center;verticalAlign=middle;whiteSpace=wrap;rounded=0;" vertex="1" parent="1">
          <mxGeometry x="700" y="886.5" width="60" height="30" as="geometry" />
        </mxCell>
        <mxCell id="BhY-n9ttYg29JpvSev8K-40" value="i = i + 1" style="rounded=0;whiteSpace=wrap;html=1;absoluteArcSize=1;arcSize=14;strokeWidth=1;" vertex="1" parent="1">
          <mxGeometry x="575" y="790" width="120" height="60" as="geometry" />
        </mxCell>
        <mxCell id="BhY-n9ttYg29JpvSev8K-41" style="edgeStyle=orthogonalEdgeStyle;rounded=0;orthogonalLoop=1;jettySize=auto;html=1;exitX=0.5;exitY=1;exitDx=0;exitDy=0;entryX=0.5;entryY=0;entryDx=0;entryDy=0;entryPerimeter=0;endArrow=none;endFill=0;" edge="1" parent="1">
          <mxGeometry relative="1" as="geometry">
            <mxPoint x="632" y="790" as="targetPoint" />
            <mxPoint x="632" y="770" as="sourcePoint" />
          </mxGeometry>
        </mxCell>
        <mxCell id="BhY-n9ttYg29JpvSev8K-42" value="" style="endArrow=none;html=1;rounded=0;exitX=0;exitY=0.5;exitDx=0;exitDy=0;entryX=0.5;entryY=1;entryDx=0;entryDy=0;" edge="1" parent="1" source="BhY-n9ttYg29JpvSev8K-32" target="BhY-n9ttYg29JpvSev8K-17">
          <mxGeometry width="50" height="50" relative="1" as="geometry">
            <mxPoint x="620" y="950" as="sourcePoint" />
            <mxPoint x="670" y="900" as="targetPoint" />
            <Array as="points">
              <mxPoint x="540" y="909" />
              <mxPoint x="540" y="1030" />
              <mxPoint x="740" y="1030" />
            </Array>
          </mxGeometry>
        </mxCell>
        <mxCell id="BhY-n9ttYg29JpvSev8K-43" value="" style="endArrow=none;html=1;rounded=0;" edge="1" parent="1">
          <mxGeometry width="50" height="50" relative="1" as="geometry">
            <mxPoint x="380" y="900" as="sourcePoint" />
            <mxPoint x="640" y="1030" as="targetPoint" />
            <Array as="points">
              <mxPoint x="380" y="1050" />
              <mxPoint x="640" y="1050" />
            </Array>
          </mxGeometry>
        </mxCell>
        <mxCell id="BhY-n9ttYg29JpvSev8K-44" style="edgeStyle=orthogonalEdgeStyle;rounded=0;orthogonalLoop=1;jettySize=auto;html=1;exitX=0;exitY=0.5;exitDx=0;exitDy=0;exitPerimeter=0;entryX=1;entryY=0.5;entryDx=0;entryDy=0;entryPerimeter=0;endArrow=none;endFill=0;dashed=1;" edge="1" parent="1" source="BhY-n9ttYg29JpvSev8K-45">
          <mxGeometry relative="1" as="geometry">
            <mxPoint x="582.5" y="1180" as="targetPoint" />
          </mxGeometry>
        </mxCell>
        <mxCell id="BhY-n9ttYg29JpvSev8K-45" value="Возврат ind" style="strokeWidth=1;html=1;shape=mxgraph.flowchart.annotation_2;align=left;labelPosition=right;pointerEvents=1;rounded=0;" vertex="1" parent="1">
          <mxGeometry x="607.5" y="1150" width="45" height="60" as="geometry" />
        </mxCell>
      </root>
    </mxGraphModel>
  </diagram>
  <diagram id="lawsc4NValWFiMUq9rIP" name="bm1">
    <mxGraphModel dx="982" dy="839" grid="1" gridSize="10" guides="1" tooltips="1" connect="1" arrows="1" fold="1" page="1" pageScale="1" pageWidth="1100" pageHeight="850" math="0" shadow="0">
      <root>
        <mxCell id="0" />
        <mxCell id="1" parent="0" />
        <mxCell id="qBXlxF-NQSGNVK6w9qh5-1" value="Начало" style="strokeWidth=1;html=1;shape=mxgraph.flowchart.terminator;whiteSpace=wrap;" vertex="1" parent="1">
          <mxGeometry x="280" y="470" width="120" height="60" as="geometry" />
        </mxCell>
        <mxCell id="qBXlxF-NQSGNVK6w9qh5-2" style="edgeStyle=orthogonalEdgeStyle;rounded=0;orthogonalLoop=1;jettySize=auto;html=1;exitX=0;exitY=0.5;exitDx=0;exitDy=0;exitPerimeter=0;entryX=1;entryY=0.5;entryDx=0;entryDy=0;entryPerimeter=0;endArrow=none;endFill=0;dashed=1;" edge="1" parent="1" source="qBXlxF-NQSGNVK6w9qh5-3" target="qBXlxF-NQSGNVK6w9qh5-1">
          <mxGeometry relative="1" as="geometry" />
        </mxCell>
        <mxCell id="qBXlxF-NQSGNVK6w9qh5-3" value="bm_search&lt;br&gt;Вход: строка text, подстрока pattern&lt;br&gt;Выход:индекс первого символа подстроки&lt;br&gt;в строке или -1, если подстроки нет" style="strokeWidth=1;html=1;shape=mxgraph.flowchart.annotation_2;align=left;labelPosition=right;pointerEvents=1;rounded=0;" vertex="1" parent="1">
          <mxGeometry x="425" y="470" width="45" height="60" as="geometry" />
        </mxCell>
        <mxCell id="qBXlxF-NQSGNVK6w9qh5-4" style="edgeStyle=orthogonalEdgeStyle;rounded=0;orthogonalLoop=1;jettySize=auto;html=1;exitX=0.5;exitY=1;exitDx=0;exitDy=0;entryX=0.5;entryY=0;entryDx=0;entryDy=0;entryPerimeter=0;endArrow=none;endFill=0;" edge="1" parent="1">
          <mxGeometry relative="1" as="geometry">
            <mxPoint x="342" y="790" as="targetPoint" />
            <mxPoint x="342" y="770" as="sourcePoint" />
          </mxGeometry>
        </mxCell>
        <mxCell id="qBXlxF-NQSGNVK6w9qh5-5" style="edgeStyle=orthogonalEdgeStyle;rounded=0;orthogonalLoop=1;jettySize=auto;html=1;exitX=0.5;exitY=1;exitDx=0;exitDy=0;entryX=0.5;entryY=0;entryDx=0;entryDy=0;entryPerimeter=0;endArrow=none;endFill=0;" edge="1" parent="1">
          <mxGeometry relative="1" as="geometry">
            <mxPoint x="342.5" y="550" as="targetPoint" />
            <mxPoint x="342.5" y="530" as="sourcePoint" />
          </mxGeometry>
        </mxCell>
        <mxCell id="qBXlxF-NQSGNVK6w9qh5-6" style="edgeStyle=orthogonalEdgeStyle;rounded=0;orthogonalLoop=1;jettySize=auto;html=1;exitX=0.5;exitY=1;exitDx=0;exitDy=0;exitPerimeter=0;entryX=0.5;entryY=0;entryDx=0;entryDy=0;endArrow=none;endFill=0;" edge="1" parent="1" target="qBXlxF-NQSGNVK6w9qh5-7">
          <mxGeometry relative="1" as="geometry">
            <mxPoint x="342.5" y="530" as="sourcePoint" />
          </mxGeometry>
        </mxCell>
        <mxCell id="qBXlxF-NQSGNVK6w9qh5-7" value="ind = -1" style="rounded=0;whiteSpace=wrap;html=1;absoluteArcSize=1;arcSize=14;strokeWidth=1;" vertex="1" parent="1">
          <mxGeometry x="282.5" y="550" width="120" height="60" as="geometry" />
        </mxCell>
        <mxCell id="qBXlxF-NQSGNVK6w9qh5-8" style="edgeStyle=orthogonalEdgeStyle;rounded=0;orthogonalLoop=1;jettySize=auto;html=1;exitX=0.5;exitY=1;exitDx=0;exitDy=0;exitPerimeter=0;entryX=0.5;entryY=0;entryDx=0;entryDy=0;endArrow=none;endFill=0;" edge="1" parent="1">
          <mxGeometry relative="1" as="geometry">
            <mxPoint x="342" y="610" as="sourcePoint" />
            <mxPoint x="342" y="630" as="targetPoint" />
          </mxGeometry>
        </mxCell>
        <mxCell id="qBXlxF-NQSGNVK6w9qh5-9" style="edgeStyle=orthogonalEdgeStyle;rounded=0;orthogonalLoop=1;jettySize=auto;html=1;exitX=0.5;exitY=1;exitDx=0;exitDy=0;entryX=0.5;entryY=0;entryDx=0;entryDy=0;entryPerimeter=0;endArrow=none;endFill=0;" edge="1" parent="1">
          <mxGeometry relative="1" as="geometry">
            <mxPoint x="342.5" y="710" as="targetPoint" />
            <mxPoint x="342.5" y="690" as="sourcePoint" />
          </mxGeometry>
        </mxCell>
        <mxCell id="qBXlxF-NQSGNVK6w9qh5-10" style="edgeStyle=orthogonalEdgeStyle;rounded=0;orthogonalLoop=1;jettySize=auto;html=1;exitX=0.5;exitY=1;exitDx=0;exitDy=0;exitPerimeter=0;entryX=0.5;entryY=0;entryDx=0;entryDy=0;endArrow=none;endFill=0;" edge="1" parent="1" target="qBXlxF-NQSGNVK6w9qh5-11">
          <mxGeometry relative="1" as="geometry">
            <mxPoint x="342.5" y="690" as="sourcePoint" />
          </mxGeometry>
        </mxCell>
        <mxCell id="qBXlxF-NQSGNVK6w9qh5-11" value="m = длина подстроки" style="rounded=0;whiteSpace=wrap;html=1;absoluteArcSize=1;arcSize=14;strokeWidth=1;" vertex="1" parent="1">
          <mxGeometry x="282.5" y="710" width="120" height="60" as="geometry" />
        </mxCell>
        <mxCell id="qBXlxF-NQSGNVK6w9qh5-12" style="edgeStyle=orthogonalEdgeStyle;rounded=0;orthogonalLoop=1;jettySize=auto;html=1;exitX=0.5;exitY=1;exitDx=0;exitDy=0;entryX=0.5;entryY=0;entryDx=0;entryDy=0;entryPerimeter=0;endArrow=none;endFill=0;" edge="1" parent="1">
          <mxGeometry relative="1" as="geometry">
            <mxPoint x="342.5" y="790" as="targetPoint" />
            <mxPoint x="342.5" y="770" as="sourcePoint" />
          </mxGeometry>
        </mxCell>
        <mxCell id="qBXlxF-NQSGNVK6w9qh5-13" style="edgeStyle=orthogonalEdgeStyle;rounded=0;orthogonalLoop=1;jettySize=auto;html=1;exitX=0.5;exitY=1;exitDx=0;exitDy=0;exitPerimeter=0;entryX=0.5;entryY=0;entryDx=0;entryDy=0;endArrow=none;endFill=0;" edge="1" parent="1" target="qBXlxF-NQSGNVK6w9qh5-14">
          <mxGeometry relative="1" as="geometry">
            <mxPoint x="342.5" y="770" as="sourcePoint" />
          </mxGeometry>
        </mxCell>
        <mxCell id="qBXlxF-NQSGNVK6w9qh5-14" value="создание словаря bad_char размером m" style="rounded=0;whiteSpace=wrap;html=1;absoluteArcSize=1;arcSize=14;strokeWidth=1;" vertex="1" parent="1">
          <mxGeometry x="282.5" y="790" width="120" height="60" as="geometry" />
        </mxCell>
        <mxCell id="qBXlxF-NQSGNVK6w9qh5-15" value="n = длина строки" style="rounded=0;whiteSpace=wrap;html=1;absoluteArcSize=1;arcSize=14;strokeWidth=1;" vertex="1" parent="1">
          <mxGeometry x="282.5" y="630" width="120" height="60" as="geometry" />
        </mxCell>
        <mxCell id="qBXlxF-NQSGNVK6w9qh5-16" value="&lt;span&gt;Цикл по i от 0 до m&amp;nbsp;&lt;br&gt;с шагом 1&lt;br&gt;&lt;/span&gt;" style="shape=loopLimit;whiteSpace=wrap;html=1;strokeWidth=1;" vertex="1" parent="1">
          <mxGeometry x="280" y="868.5" width="120" height="61.5" as="geometry" />
        </mxCell>
        <mxCell id="qBXlxF-NQSGNVK6w9qh5-17" value="Цикл по i от 0 до m&amp;nbsp;&lt;br style=&quot;border-color: var(--border-color);&quot;&gt;с шагом 1" style="shape=loopLimit;whiteSpace=wrap;html=1;strokeWidth=1;flipV=1;" vertex="1" parent="1">
          <mxGeometry x="280" y="1028.5" width="120" height="60" as="geometry" />
        </mxCell>
        <mxCell id="qBXlxF-NQSGNVK6w9qh5-18" value="bad_char[pattern[i]] &lt;br&gt;= i" style="rounded=0;whiteSpace=wrap;html=1;absoluteArcSize=1;arcSize=14;strokeWidth=1;" vertex="1" parent="1">
          <mxGeometry x="280" y="948.5" width="120" height="60" as="geometry" />
        </mxCell>
        <mxCell id="qBXlxF-NQSGNVK6w9qh5-19" style="edgeStyle=orthogonalEdgeStyle;rounded=0;orthogonalLoop=1;jettySize=auto;html=1;exitX=0.5;exitY=1;exitDx=0;exitDy=0;entryX=0.5;entryY=0;entryDx=0;entryDy=0;entryPerimeter=0;endArrow=none;endFill=0;" edge="1" parent="1">
          <mxGeometry relative="1" as="geometry">
            <mxPoint x="342" y="948.5" as="targetPoint" />
            <mxPoint x="342" y="928.5" as="sourcePoint" />
          </mxGeometry>
        </mxCell>
        <mxCell id="qBXlxF-NQSGNVK6w9qh5-20" style="edgeStyle=orthogonalEdgeStyle;rounded=0;orthogonalLoop=1;jettySize=auto;html=1;exitX=0.5;exitY=1;exitDx=0;exitDy=0;entryX=0.5;entryY=0;entryDx=0;entryDy=0;entryPerimeter=0;endArrow=none;endFill=0;" edge="1" parent="1">
          <mxGeometry relative="1" as="geometry">
            <mxPoint x="342" y="1028.5" as="targetPoint" />
            <mxPoint x="342" y="1008.5" as="sourcePoint" />
          </mxGeometry>
        </mxCell>
        <mxCell id="qBXlxF-NQSGNVK6w9qh5-21" value="i = 0" style="rounded=0;whiteSpace=wrap;html=1;absoluteArcSize=1;arcSize=14;strokeWidth=1;" vertex="1" parent="1">
          <mxGeometry x="280" y="1110" width="120" height="60" as="geometry" />
        </mxCell>
        <mxCell id="qBXlxF-NQSGNVK6w9qh5-22" style="edgeStyle=orthogonalEdgeStyle;rounded=0;orthogonalLoop=1;jettySize=auto;html=1;exitX=0.5;exitY=1;exitDx=0;exitDy=0;entryX=0.5;entryY=0;entryDx=0;entryDy=0;entryPerimeter=0;endArrow=none;endFill=0;" edge="1" parent="1">
          <mxGeometry relative="1" as="geometry">
            <mxPoint x="339.5" y="868.5" as="targetPoint" />
            <mxPoint x="339.5" y="848.5" as="sourcePoint" />
          </mxGeometry>
        </mxCell>
        <mxCell id="qBXlxF-NQSGNVK6w9qh5-23" style="edgeStyle=orthogonalEdgeStyle;rounded=0;orthogonalLoop=1;jettySize=auto;html=1;exitX=0.5;exitY=1;exitDx=0;exitDy=0;entryX=0.5;entryY=0;entryDx=0;entryDy=0;entryPerimeter=0;endArrow=none;endFill=0;" edge="1" parent="1">
          <mxGeometry relative="1" as="geometry">
            <mxPoint x="342" y="1108.5" as="targetPoint" />
            <mxPoint x="342" y="1088.5" as="sourcePoint" />
          </mxGeometry>
        </mxCell>
        <mxCell id="qBXlxF-NQSGNVK6w9qh5-24" style="edgeStyle=orthogonalEdgeStyle;rounded=0;orthogonalLoop=1;jettySize=auto;html=1;exitX=0.5;exitY=1;exitDx=0;exitDy=0;entryX=0.5;entryY=0;entryDx=0;entryDy=0;entryPerimeter=0;endArrow=none;endFill=0;" edge="1" parent="1">
          <mxGeometry relative="1" as="geometry">
            <mxPoint x="339.5" y="1190" as="targetPoint" />
            <mxPoint x="339.5" y="1170" as="sourcePoint" />
          </mxGeometry>
        </mxCell>
        <mxCell id="qBXlxF-NQSGNVK6w9qh5-25" value="A" style="ellipse;whiteSpace=wrap;html=1;aspect=fixed;" vertex="1" parent="1">
          <mxGeometry x="310" y="1190" width="60" height="60" as="geometry" />
        </mxCell>
      </root>
    </mxGraphModel>
  </diagram>
</mxfile>
